<?xml version="1.0" standalone="no"?>
<!DOCTYPE svg PUBLIC "-//W3C//DTD SVG 20010904//EN"
 "http://www.w3.org/TR/2001/REC-SVG-20010904/DTD/svg10.dtd">
<svg version="1.0" xmlns="http://www.w3.org/2000/svg"
 width="260.000000pt" height="260.000000pt" viewBox="0 0 260.000000 260.000000"
 preserveAspectRatio="xMidYMid meet">
<metadata>
Created by potrace 1.11, written by Peter Selinger 2001-2013
</metadata>
<g transform="translate(0.000000,260.000000) scale(0.100000,-0.100000)"
fill="#000000" stroke="none">
<path d="M69 2335 c-14 -8 -35 -27 -45 -42 -17 -26 -19 -57 -20 -491 l-2 -463
46 3 47 3 3 210 c1 116 3 317 3 448 1 164 5 240 13 245 6 4 211 7 456 7 l444
0 1 45 0 45 -460 2 c-382 2 -464 0 -486 -12z"/>
<path d="M1579 2343 c-5 -36 -6 -70 -2 -80 3 -8 116 -11 445 -9 296 1 444 -1
453 -8 12 -9 15 -93 17 -460 l4 -449 44 0 45 0 0 466 c0 457 0 466 -21 494
-40 53 -35 53 -526 53 -252 0 -458 -3 -459 -7z"/>
<path d="M490 1889 c-130 -21 -225 -85 -271 -183 -26 -54 -28 -68 -26 -155 3
-106 13 -135 72 -200 31 -34 144 -96 192 -105 10 -2 38 -9 63 -16 25 -7 50
-13 55 -15 108 -24 155 -56 155 -104 0 -75 -127 -114 -200 -62 -14 10 -30 33
-36 52 l-12 34 -153 0 c-175 0 -166 6 -143 -90 31 -131 103 -212 228 -255 154
-53 362 -38 475 35 47 30 120 102 112 111 -3 4 0 4 7 0 7 -4 23 -9 37 -12 20
-3 23 -1 19 13 -3 10 0 8 8 -5 8 -12 18 -19 23 -15 4 4 5 3 2 -3 -7 -11 19
-113 31 -126 7 -7 46 -10 117 -7 22 0 45 0 50 -1 6 -1 15 -1 20 0 6 1 30 2 55
1 l46 -1 23 60 c13 32 23 62 21 66 -1 4 2 10 7 13 10 6 38 91 35 104 -1 4 2 7
7 7 5 0 12 12 17 28 9 34 9 32 23 67 6 17 19 49 28 73 18 49 28 59 31 31 4
-43 6 -49 14 -49 4 0 8 -8 8 -18 0 -10 5 -23 10 -28 6 -6 12 -19 14 -30 5 -24
58 -157 65 -164 3 -3 7 -12 9 -20 1 -8 12 -40 24 -70 23 -62 45 -85 63 -70 7
5 14 8 16 6 3 -3 54 -6 114 -7 l110 -2 17 29 c9 16 19 40 21 54 2 14 7 32 10
40 25 66 48 153 43 166 -3 8 -2 12 3 9 5 -3 17 21 26 52 9 32 25 87 37 123 11
36 22 72 23 80 1 8 7 28 14 44 6 16 13 36 15 45 2 9 6 23 9 31 28 72 87 283
81 292 -4 7 -3 8 4 4 7 -4 12 -1 12 8 0 8 7 36 16 62 8 25 13 48 10 51 -4 5
-121 6 -313 4 -32 -1 -43 -5 -43 -17 0 -8 -11 -55 -25 -103 -14 -48 -28 -97
-30 -107 -2 -10 -9 -38 -15 -62 -6 -24 -7 -48 -4 -54 4 -6 3 -8 -3 -5 -9 6
-20 -20 -28 -68 -1 -5 -5 -17 -8 -25 -4 -8 -10 -33 -15 -54 -4 -22 -13 -41
-20 -44 -7 -2 -12 0 -11 5 2 8 -8 35 -41 107 -11 25 -20 50 -20 55 0 6 -4 11
-8 11 -5 0 -9 6 -9 13 0 11 -55 146 -104 254 -11 24 -24 54 -29 68 -9 23 -14
24 -74 23 l-64 -2 -22 -50 c-12 -28 -28 -64 -36 -79 -8 -16 -14 -34 -14 -40 0
-7 -9 -29 -20 -50 -11 -20 -20 -44 -20 -52 0 -8 -5 -15 -11 -15 -5 0 -8 -4 -5
-9 3 -4 -3 -16 -14 -26 -11 -10 -20 -13 -20 -8 0 12 -49 12 -67 0 -7 -5 -13
-4 -13 1 0 5 -11 10 -25 10 -31 0 -35 2 -41 36 -2 14 -8 36 -14 50 -5 13 -6
27 -3 30 4 3 0 6 -7 6 -7 0 -11 3 -8 6 4 3 2 20 -4 37 -5 18 -12 46 -15 62 -3
17 -8 32 -11 35 -4 3 -9 16 -10 30 -2 14 -5 26 -6 28 -2 1 -88 4 -192 5 -104
2 -200 7 -214 11 -37 10 -198 14 -250 5z m575 -248 c3 -5 2 -12 -3 -15 -5 -3
-9 1 -9 9 0 17 3 19 12 6z m-392 -24 c14 -9 28 -30 32 -47 7 -30 7 -30 76 -30
44 0 69 -4 69 -11 0 -6 6 -9 13 -6 8 3 20 1 28 -5 11 -8 11 -9 -3 -5 -9 3 -24
-1 -35 -8 -10 -8 -13 -15 -6 -15 7 0 10 -7 7 -15 -4 -8 -1 -15 6 -15 6 0 10
-10 8 -22 -3 -22 -22 -30 -43 -19 -5 3 -14 7 -20 8 -101 25 -237 69 -266 85
-51 28 -57 63 -18 99 25 23 37 27 78 25 26 -1 60 -9 74 -19z m933 -23 c1 -9 0
-13 -4 -10 -3 4 -7 14 -8 22 -1 9 0 13 4 10 3 -4 7 -14 8 -22z m-316 -89 c0
-5 -5 -3 -10 5 -5 8 -10 20 -10 25 0 6 5 3 10 -5 5 -8 10 -19 10 -25z m78 10
c3 -3 2 -8 -2 -12 -4 -4 -10 -3 -14 3 -4 6 -17 10 -29 9 -12 -1 -20 2 -17 7 5
8 52 3 62 -7z m-469 -50 c5 3 13 0 17 -6 5 -8 3 -9 -6 -4 -10 6 -11 2 -6 -19
4 -18 3 -25 -4 -21 -5 3 -10 15 -10 25 0 10 -4 22 -10 25 -5 3 -10 14 -9 23 0
12 3 10 10 -6 5 -13 13 -21 18 -17z m434 28 c-7 -2 -19 -2 -25 0 -7 3 -2 5 12
5 14 0 19 -2 13 -5z m-43 -11 c0 -5 -7 -9 -15 -9 -8 0 -15 4 -15 9 0 4 7 8 15
8 8 0 15 -4 15 -8z m56 -7 c-11 -8 -26 -15 -34 -15 -12 0 -11 -4 3 -20 10 -11
16 -22 14 -24 -2 -2 -12 7 -22 20 -18 23 -17 24 15 38 43 19 47 19 24 1z m904
1 c0 -2 -8 -10 -17 -17 -16 -13 -17 -12 -4 4 13 16 21 21 21 13z m-903 -31 c0
-8 -4 -12 -9 -9 -5 3 -6 10 -3 15 9 13 12 11 12 -6z m-48 -18 c8 -10 7 -17 -2
-27 -6 -7 -7 -10 -2 -7 23 13 33 -7 20 -38 -13 -29 -14 -29 -20 -7 -4 12 -11
22 -16 22 -14 0 -11 17 6 34 14 13 13 16 -2 25 -10 6 -13 11 -7 11 6 0 16 -6
23 -13z m-369 -49 c0 -6 -6 -5 -15 2 -8 7 -15 14 -15 16 0 2 7 1 15 -2 8 -4
15 -11 15 -16z m1093 -53 c-3 -9 -8 -14 -10 -11 -3 3 -2 9 2 15 9 16 15 13 8
-4z m33 -327 c3 -4 -1 -5 -10 -4 -8 1 -18 5 -22 8 -3 4 1 5 10 4 8 -1 18 -5
22 -8z m-995 -25 c13 -17 13 -17 -6 -3 -11 8 -22 16 -24 17 -2 2 0 3 6 3 6 0
17 -8 24 -17z m-11 -24 c0 -5 -8 -9 -17 -8 -11 0 -13 3 -5 6 6 2 9 10 6 15 -4
7 -2 8 4 4 7 -4 12 -11 12 -17z"/>
<path d="M846 1435 c4 -8 8 -15 10 -15 2 0 4 7 4 15 0 8 -4 15 -10 15 -5 0 -7
-7 -4 -15z"/>
<path d="M28 1242 l-27 -3 2 -453 2 -452 25 -36 c47 -69 39 -69 546 -68 l454
1 0 50 0 49 -444 -2 c-412 -2 -446 -1 -464 15 -21 19 -22 45 -22 648 l0 247
-23 3 c-12 2 -34 3 -49 1z"/>
<path d="M2502 1240 c-7 -5 -8 -71 -11 -626 -1 -196 -4 -254 -15 -269 -13 -18
-34 -19 -462 -19 l-449 -1 -3 -47 -3 -47 462 -1 c447 0 463 1 495 20 18 11 42
37 53 56 20 34 21 47 21 484 l0 448 -40 4 c-23 2 -44 1 -48 -2z"/>
</g>
</svg>
